<svg width="232" height="197" viewBox="0 0 232 197" fill="none" xmlns="http://www.w3.org/2000/svg">
<path d="M124.662 39.6634L224.637 39.6634M124.25 30.2612C122.832 42.3725 120.894 49.2063 114.558 61.5047M226.044 36.4932C224.437 48.4884 220.815 55.3302 213.263 62.7158M158.682 9C165.124 15.1746 168.963 17.3524 176.036 19.9597M167 67.5C158.868 123.288 137 161 97.5 190M117.971 99.1077L203.607 99.1077M135.676 65.065H196.676" stroke="black" stroke-width="9" stroke-linecap="square"/>
<path d="M37.2143 5H111.071M62.3143 40.9932C71.9423 63.3785 76.9325 94.7367 99.381 98.4832M13.4048 40.9932H104.405M7 111.481C34.1172 96.5013 63.9383 53.4229 72.9414 5.49088" stroke="black" stroke-width="9" stroke-linecap="square"/>
</svg>